<?xml version="1.0" standalone="no"?>
<!DOCTYPE svg PUBLIC "-//W3C//DTD SVG 20010904//EN"
 "http://www.w3.org/TR/2001/REC-SVG-20010904/DTD/svg10.dtd">
<svg version="1.0" xmlns="http://www.w3.org/2000/svg"
 width="190.000000pt" height="190.000000pt" viewBox="0 0 190.000000 190.000000"
 preserveAspectRatio="xMidYMid meet">
<metadata>
Created by potrace 1.14, written by Peter Selinger 2001-2017
</metadata>
<g transform="translate(0.000000,190.000000) scale(0.100000,-0.100000)"
fill="#000000" stroke="none">
<path d="M755 1713 c-310 -66 -553 -287 -631 -575 -24 -86 -24 -261 0 -348 78
-286 325 -506 641 -571 388 -80 796 106 955 436 219 452 -79 970 -614 1064
-84 15 -268 12 -351 -6z m280 -53 c288 -32 522 -190 630 -425 49 -106 75 -244
61 -320 l-7 -36 -59 78 c-116 156 -251 264 -405 322 -75 28 -108 34 -196 39
-208 10 -384 -48 -596 -194 -51 -35 -96 -64 -100 -64 -9 0 -96 132 -113 171
-11 24 -8 33 24 83 120 188 343 321 579 346 39 4 77 8 82 9 6 0 51 -4 100 -9z
m60 -444 c89 -41 138 -119 138 -221 0 -102 -49 -180 -138 -221 -58 -28 -147
-32 -199 -10 -53 22 -112 82 -136 138 -41 95 -12 211 69 279 75 64 177 77 266
35z m171 -12 c59 -25 162 -95 223 -153 l55 -51 -64 -49 c-68 -53 -219 -146
-225 -139 -3 2 5 24 18 49 27 54 35 161 16 226 -7 25 -27 66 -46 89 -36 48
-34 52 23 28z m-557 -69 c-16 -33 -32 -82 -35 -108 -10 -68 18 -161 66 -225
l39 -51 -56 21 c-96 36 -197 104 -277 187 -46 48 -53 37 80 126 73 49 204 118
210 112 2 -1 -10 -29 -27 -62z m-361 -168 c106 -131 272 -242 422 -283 87 -23
243 -23 334 1 140 36 258 95 404 202 40 30 78 51 83 47 6 -3 33 -40 59 -81
l49 -74 -15 -41 c-58 -166 -234 -338 -420 -410 -122 -47 -212 -61 -354 -55
-99 4 -143 10 -210 32 -271 87 -460 282 -516 533 -18 83 -15 226 7 294 l12 38
45 -68 c25 -37 70 -98 100 -135z"/>
</g>
</svg>
