<svg width="33" height="32" viewBox="0 0 33 32" fill="none" xmlns="http://www.w3.org/2000/svg">
<path d="M24.0167 10.4196C27.3278 13.8547 27.3278 19.4242 24.0167 22.8594M22.2886 13.4323C23.997 15.2048 23.997 18.0785 22.2886 19.851M6.5 12.7764C6.5 9.03391 9.42432 6 13.0317 6C16.639 6 19.5633 8.93654 19.5633 12.7764C19.5633 16.6163 16.6261 17.0068 16.6261 21.0651C16.6261 25.1233 15.0168 26 13.0318 26C11.0467 26 9.43743 24.3305 9.43743 22.271M15.8347 16.1751C16.8316 15.3312 17.4681 14.0464 17.4681 12.6074C17.4681 10.0656 15.482 8.005 13.032 8.005C11.4402 8.005 10.0443 8.87475 9.26157 10.1812" stroke="black" stroke-linecap="round"/>
</svg>
