<svg width="32" height="32" viewBox="0 0 32 32" fill="none" xmlns="http://www.w3.org/2000/svg">
<circle cx="16" cy="16" r="11.5" stroke="black"/>
<path d="M15.1668 20H16.4748V18.68H15.1668V20ZM15.2988 17.408H16.3428C16.3548 16.88 16.4148 16.556 16.6308 16.256C16.8468 15.968 17.1708 15.68 17.6868 15.248C18.2748 14.768 18.8148 14.204 18.8148 13.22C18.8148 11.924 17.7708 10.916 16.0668 10.916C13.9908 10.916 13.0668 12.356 13.0308 13.808H14.1588C14.1948 12.716 14.8188 11.9 16.0668 11.9C17.0748 11.9 17.6388 12.488 17.6388 13.244C17.6388 14.012 17.1228 14.408 16.5708 14.888C15.6588 15.68 15.3108 16.208 15.2988 17.408Z" fill="black"/>
</svg>
