<svg width="100%" height="100%" viewBox="0 0 969 248" version="1.1" xmlns="http://www.w3.org/2000/svg" xmlns:xlink="http://www.w3.org/1999/xlink" xml:space="preserve" style="fill-rule:evenodd;clip-rule:evenodd;stroke-miterlimit:10;">
      <path d="M404.431,124.249c-0,-55.81 -50.22,-101.12 -112.076,-101.12c-61.856,-0 -112.075,45.31 -112.075,101.12c-0,55.809 50.219,101.12 112.075,101.12c61.856,-0 112.076,-45.311 112.076,-101.12Z" style="fill:none;stroke:#225589;stroke-width:8.65px;"/>
       <path d="M546.327,196.449c-19.842,16.068 -50.089,28.92 -78.85,28.92c-29.615,-0 -56.547,-10.364 -76.584,-27.29" style="fill:none;fill-rule:nonzero;stroke:#225589;stroke-width:8.65px;"/>
       <path d="M390.896,50.416c20.037,-16.925 46.967,-27.287 76.581,-27.287c28.759,0 54.988,9.773 74.829,25.839" style="fill:none;fill-rule:nonzero;stroke:#225589;stroke-width:8.65px;"/>
       <path d="M199.517,197.57c-20.199,17.78 -46.732,27.798 -77.18,27.798c-61.898,0 -112.076,-45.273 -112.076,-101.12c0,-55.846 50.178,-101.119 112.076,-101.119c28.868,0 55.187,9.847 75.056,26.023" style="fill:none;fill-rule:nonzero;stroke:#225589;stroke-width:8.65px;"/>
         <path d="M607.071,74.776c4.517,-0 8.022,1.19 10.515,3.57c2.493,2.379 3.877,5.083 4.152,8.11l-4.711,0c-0.534,-2.299 -1.598,-4.12 -3.193,-5.464c-1.595,-1.343 -3.833,-2.015 -6.714,-2.015c-3.513,-0 -6.35,1.234 -8.511,3.703c-2.162,2.469 -3.242,6.253 -3.242,11.352c-0,4.177 0.975,7.564 2.926,10.163c1.951,2.598 4.861,3.897 8.73,3.897c3.561,0 6.273,-1.368 8.134,-4.104c0.988,-1.441 1.724,-3.335 2.21,-5.682l4.711,0c-0.421,3.756 -1.813,6.904 -4.177,9.446c-2.833,3.06 -6.653,4.59 -11.461,4.59c-4.144,-0 -7.625,-1.255 -10.442,-3.764c-3.707,-3.319 -5.561,-8.443 -5.561,-15.371c0,-5.262 1.393,-9.576 4.177,-12.943c3.011,-3.659 7.164,-5.488 12.457,-5.488Z" style="fill:#225589;fill-rule:nonzero;"/>
           <path d="M641.441,84.829c1.846,0 3.635,0.433 5.367,1.299c1.732,0.866 3.051,1.987 3.958,3.363c0.874,1.312 1.457,2.841 1.748,4.59c0.259,1.198 0.389,3.108 0.389,5.731l-19.062,-0c0.081,2.638 0.704,4.755 1.869,6.35c1.166,1.594 2.971,2.391 5.416,2.391c2.282,0 4.103,-0.752 5.463,-2.258c0.777,-0.874 1.328,-1.886 1.651,-3.035l4.298,-0c-0.113,0.955 -0.489,2.019 -1.129,3.193c-0.639,1.174 -1.355,2.133 -2.149,2.877c-1.327,1.296 -2.97,2.17 -4.929,2.623c-1.052,0.259 -2.242,0.389 -3.57,0.389c-3.237,-0 -5.981,-1.178 -8.232,-3.534c-2.25,-2.355 -3.375,-5.653 -3.375,-9.895c0,-4.177 1.133,-7.568 3.4,-10.174c2.266,-2.607 5.229,-3.91 8.887,-3.91Zm6.969,11.51c-0.178,-1.894 -0.59,-3.408 -1.238,-4.541c-1.198,-2.104 -3.197,-3.157 -5.998,-3.157c-2.007,0 -3.691,0.725 -5.051,2.174c-1.36,1.449 -2.08,3.29 -2.161,5.524l14.448,0Z" style="fill:#225589;fill-rule:nonzero;"/>
           <path d="M661.509,85.412l4.152,-0l-0,3.691c1.23,-1.522 2.533,-2.615 3.91,-3.278c1.376,-0.664 2.905,-0.996 4.589,-0.996c3.691,0 6.184,1.287 7.479,3.861c0.712,1.408 1.069,3.424 1.069,6.046l-0,16.683l-4.444,-0l-0,-16.391c-0,-1.587 -0.235,-2.866 -0.704,-3.837c-0.777,-1.619 -2.186,-2.428 -4.226,-2.428c-1.036,-0 -1.886,0.105 -2.549,0.316c-1.198,0.356 -2.251,1.068 -3.157,2.136c-0.729,0.858 -1.202,1.745 -1.421,2.659c-0.218,0.915 -0.327,2.222 -0.327,3.922l-0,13.623l-4.371,-0l-0,-26.007Z" style="fill:#225589;fill-rule:nonzero;"/>
           <path d="M693.28,78.151l4.42,0l-0,7.261l4.152,-0l0,3.569l-4.152,0l-0,16.974c-0,0.907 0.307,1.514 0.923,1.821c0.34,0.178 0.906,0.267 1.699,0.267c0.211,0 0.437,-0.004 0.68,-0.012c0.243,-0.008 0.526,-0.028 0.85,-0.06l0,3.448c-0.502,0.145 -1.024,0.251 -1.566,0.315c-0.542,0.065 -1.129,0.098 -1.761,0.098c-2.039,-0 -3.423,-0.522 -4.152,-1.567c-0.728,-1.044 -1.093,-2.4 -1.093,-4.067l0,-17.217l-3.521,0l0,-3.569l3.521,-0l0,-7.261Z" style="fill:#225589;fill-rule:nonzero;"/>
           <path d="M709.584,85.412l4.152,-0l0,4.492c0.34,-0.874 1.174,-1.938 2.501,-3.193c1.328,-1.255 2.858,-1.882 4.59,-1.882c0.081,0 0.218,0.008 0.413,0.024c0.194,0.017 0.526,0.049 0.995,0.097l0,4.614c-0.259,-0.048 -0.498,-0.081 -0.716,-0.097c-0.219,-0.016 -0.457,-0.024 -0.716,-0.024c-2.202,-0 -3.894,0.708 -5.076,2.125c-1.181,1.416 -1.772,3.047 -1.772,4.893l-0,14.958l-4.371,-0l-0,-26.007Z" style="fill:#225589;fill-rule:nonzero;"/>
           <path d="M739.583,108.602c2.898,-0 4.885,-1.097 5.961,-3.29c1.077,-2.194 1.615,-4.634 1.615,-7.322c0,-2.428 -0.388,-4.403 -1.165,-5.925c-1.231,-2.396 -3.351,-3.594 -6.362,-3.594c-2.672,0 -4.614,1.02 -5.828,3.06c-1.214,2.04 -1.822,4.501 -1.822,7.382c0,2.768 0.608,5.075 1.822,6.921c1.214,1.845 3.14,2.768 5.779,2.768Zm0.17,-23.943c3.351,0 6.184,1.117 8.499,3.351c2.315,2.234 3.472,5.52 3.472,9.859c0,4.193 -1.019,7.657 -3.059,10.393c-2.04,2.736 -5.205,4.104 -9.495,4.104c-3.577,-0 -6.419,-1.21 -8.523,-3.63c-2.105,-2.421 -3.157,-5.671 -3.157,-9.75c0,-4.371 1.109,-7.851 3.327,-10.442c2.218,-2.59 5.196,-3.885 8.936,-3.885Z" style="fill:#225589;fill-rule:nonzero;"/>
           <path d="M607.435,128.837c6.298,0 10.96,2.024 13.987,6.071c2.364,3.157 3.546,7.196 3.546,12.117c-0,5.326 -1.352,9.754 -4.056,13.283c-3.173,4.144 -7.697,6.216 -13.574,6.216c-5.488,0 -9.802,-1.813 -12.942,-5.439c-2.801,-3.497 -4.201,-7.916 -4.201,-13.259c-0,-4.824 1.198,-8.952 3.593,-12.384c3.076,-4.403 7.625,-6.605 13.647,-6.605Zm0.486,33.365c4.258,-0 7.338,-1.526 9.24,-4.577c1.902,-3.052 2.853,-6.561 2.853,-10.527c-0,-4.193 -1.097,-7.568 -3.29,-10.126c-2.194,-2.558 -5.193,-3.837 -8.997,-3.837c-3.691,0 -6.702,1.267 -9.033,3.801c-2.332,2.533 -3.497,6.269 -3.497,11.206c-0,3.95 1,7.281 2.999,9.993c1.999,2.711 5.241,4.067 9.725,4.067Z" style="fill:#225589;fill-rule:nonzero;"/>
           <path d="M634.342,135.515c0.065,-1.813 0.381,-3.141 0.948,-3.982c1.019,-1.49 2.986,-2.234 5.9,-2.234c0.275,-0 0.559,0.008 0.85,0.024c0.292,0.016 0.623,0.04 0.996,0.073l-0,3.982c-0.454,-0.032 -0.781,-0.052 -0.984,-0.061c-0.202,-0.008 -0.392,-0.012 -0.57,-0.012c-1.328,0 -2.121,0.344 -2.38,1.032c-0.259,0.688 -0.389,2.441 -0.389,5.258l4.323,-0l-0,3.448l-4.371,-0l-0,22.437l-4.323,0l0,-22.437l-3.618,-0l0,-3.448l3.618,-0l0,-4.08Z" style="fill:#225589;fill-rule:nonzero;"/>
           <path d="M651.051,132.213l4.419,-0l0,7.26l4.153,0l-0,3.57l-4.153,-0l0,16.973c0,0.907 0.308,1.514 0.923,1.822c0.34,0.178 0.907,0.267 1.7,0.267c0.21,-0 0.437,-0.004 0.68,-0.012c0.242,-0.008 0.526,-0.029 0.85,-0.061l-0,3.448c-0.502,0.146 -1.024,0.251 -1.567,0.316c-0.542,0.065 -1.129,0.097 -1.76,0.097c-2.04,-0 -3.424,-0.522 -4.153,-1.566c-0.728,-1.044 -1.092,-2.4 -1.092,-4.068l-0,-17.216l-3.521,-0l-0,-3.57l3.521,0l-0,-7.26Z" style="fill:#225589;fill-rule:nonzero;"/>
           <path d="M670.454,158.559c0,1.263 0.462,2.259 1.384,2.987c0.923,0.729 2.016,1.093 3.279,1.093c1.538,0 3.027,-0.356 4.468,-1.068c2.428,-1.182 3.642,-3.117 3.642,-5.804l0,-3.521c-0.534,0.34 -1.222,0.623 -2.064,0.85c-0.842,0.226 -1.667,0.388 -2.477,0.485l-2.647,0.34c-1.586,0.211 -2.776,0.543 -3.569,0.996c-1.344,0.761 -2.016,1.975 -2.016,3.642Zm10.588,-8.838c1.003,-0.13 1.675,-0.551 2.015,-1.263c0.194,-0.389 0.292,-0.947 0.292,-1.676c-0,-1.489 -0.531,-2.57 -1.591,-3.241c-1.06,-0.672 -2.578,-1.008 -4.553,-1.008c-2.283,-0 -3.901,0.615 -4.857,1.845c-0.534,0.68 -0.882,1.692 -1.044,3.036l-4.079,-0c0.081,-3.206 1.121,-5.436 3.12,-6.69c1.999,-1.255 4.318,-1.882 6.957,-1.882c3.06,-0 5.545,0.583 7.455,1.748c1.894,1.166 2.841,2.979 2.841,5.44l0,14.982c0,0.453 0.093,0.818 0.279,1.093c0.186,0.275 0.579,0.413 1.178,0.413c0.194,-0 0.413,-0.013 0.656,-0.037c0.242,-0.024 0.501,-0.061 0.777,-0.109l-0,3.23c-0.68,0.194 -1.198,0.315 -1.554,0.364c-0.357,0.048 -0.842,0.073 -1.457,0.073c-1.506,-0 -2.599,-0.535 -3.279,-1.603c-0.356,-0.567 -0.607,-1.368 -0.752,-2.404c-0.891,1.166 -2.17,2.177 -3.837,3.035c-1.667,0.858 -3.505,1.287 -5.512,1.287c-2.412,0 -4.383,-0.732 -5.913,-2.197c-1.53,-1.465 -2.295,-3.299 -2.295,-5.5c0,-2.412 0.753,-4.282 2.258,-5.61c1.506,-1.327 3.481,-2.145 5.925,-2.452l6.97,-0.874Z" style="fill:#225589;fill-rule:nonzero;"/>
           <rect x="697.993" y="129.809" width="4.371" height="35.672" style="fill:#225589;fill-rule:nonzero;"/>
           <path d="M712.03,139.473l4.322,0l0,3.691c1.036,-1.279 1.975,-2.21 2.817,-2.792c1.441,-0.988 3.076,-1.482 4.905,-1.482c2.072,0 3.74,0.51 5.002,1.53c0.713,0.583 1.36,1.441 1.943,2.574c0.971,-1.392 2.113,-2.424 3.424,-3.096c1.311,-0.672 2.784,-1.008 4.419,-1.008c3.497,0 5.877,1.263 7.14,3.788c0.679,1.36 1.019,3.19 1.019,5.488l0,17.314l-4.54,0l-0,-18.066c-0,-1.733 -0.433,-2.922 -1.3,-3.57c-0.866,-0.647 -1.922,-0.971 -3.168,-0.971c-1.716,-0 -3.194,0.574 -4.432,1.724c-1.239,1.149 -1.858,3.068 -1.858,5.755l0,15.128l-4.444,0l0,-16.974c0,-1.764 -0.21,-3.051 -0.631,-3.861c-0.664,-1.214 -1.902,-1.821 -3.715,-1.821c-1.651,0 -3.153,0.64 -4.505,1.919c-1.351,1.278 -2.027,3.593 -2.027,6.944l-0,13.793l-4.371,0l-0,-26.007Z" style="fill:#225589;fill-rule:nonzero;"/>
           <path d="M766.886,162.663c2.898,0 4.885,-1.096 5.962,-3.29c1.076,-2.194 1.615,-4.634 1.615,-7.321c-0,-2.429 -0.389,-4.404 -1.166,-5.925c-1.23,-2.396 -3.351,-3.594 -6.362,-3.594c-2.671,-0 -4.614,1.02 -5.828,3.059c-1.214,2.04 -1.821,4.501 -1.821,7.382c-0,2.769 0.607,5.076 1.821,6.921c1.214,1.846 3.141,2.768 5.779,2.768Zm0.17,-23.943c3.351,0 6.184,1.117 8.499,3.351c2.315,2.234 3.473,5.521 3.473,9.859c-0,4.193 -1.02,7.657 -3.06,10.393c-2.04,2.736 -5.204,4.104 -9.494,4.104c-3.578,0 -6.419,-1.21 -8.524,-3.63c-2.104,-2.42 -3.156,-5.67 -3.156,-9.75c-0,-4.371 1.108,-7.851 3.326,-10.441c2.218,-2.591 5.197,-3.886 8.936,-3.886Z" style="fill:#225589;fill-rule:nonzero;"/>
           <rect x="787.456" y="129.809" width="4.371" height="35.672" style="fill:#225589;fill-rule:nonzero;"/>
           <path d="M811.813,162.663c2.898,0 4.885,-1.096 5.961,-3.29c1.077,-2.194 1.615,-4.634 1.615,-7.321c0,-2.429 -0.388,-4.404 -1.165,-5.925c-1.231,-2.396 -3.351,-3.594 -6.362,-3.594c-2.672,-0 -4.614,1.02 -5.828,3.059c-1.214,2.04 -1.822,4.501 -1.822,7.382c0,2.769 0.608,5.076 1.822,6.921c1.214,1.846 3.14,2.768 5.779,2.768Zm0.17,-23.943c3.351,0 6.184,1.117 8.499,3.351c2.315,2.234 3.472,5.521 3.472,9.859c0,4.193 -1.019,7.657 -3.059,10.393c-2.04,2.736 -5.205,4.104 -9.495,4.104c-3.578,0 -6.419,-1.21 -8.523,-3.63c-2.105,-2.42 -3.157,-5.67 -3.157,-9.75c0,-4.371 1.109,-7.851 3.327,-10.441c2.218,-2.591 5.196,-3.886 8.936,-3.886Zm5.075,-9.713l-6.483,7.018l-3.351,-0l4.443,-7.018l5.391,0Z" style="fill:#225589;fill-rule:nonzero;"/>
           <path d="M841.44,139.012c2.039,-0 3.82,0.502 5.342,1.505c0.826,0.567 1.667,1.393 2.525,2.477l0,-3.278l4.031,-0l0,23.651c0,3.303 -0.485,5.909 -1.457,7.82c-1.813,3.529 -5.237,5.293 -10.271,5.293c-2.801,0 -5.156,-0.627 -7.067,-1.882c-1.91,-1.254 -2.978,-3.217 -3.205,-5.888l4.444,-0c0.21,1.165 0.631,2.064 1.262,2.695c0.988,0.971 2.542,1.457 4.663,1.457c3.351,0 5.544,-1.182 6.58,-3.545c0.616,-1.392 0.899,-3.877 0.85,-7.455c-0.874,1.327 -1.926,2.315 -3.156,2.962c-1.231,0.648 -2.858,0.972 -4.881,0.972c-2.817,-0 -5.282,-1 -7.394,-2.999c-2.113,-1.999 -3.169,-5.306 -3.169,-9.92c-0,-4.354 1.064,-7.754 3.193,-10.199c2.129,-2.444 4.699,-3.666 7.71,-3.666Zm7.867,13.355c0,-3.221 -0.663,-5.609 -1.991,-7.163c-1.327,-1.554 -3.019,-2.331 -5.075,-2.331c-3.076,-0 -5.18,1.441 -6.314,4.322c-0.599,1.538 -0.898,3.553 -0.898,6.047c0,2.93 0.595,5.16 1.785,6.689c1.19,1.53 2.788,2.295 4.796,2.295c3.14,0 5.35,-1.416 6.629,-4.249c0.712,-1.603 1.068,-3.473 1.068,-5.61Z" style="fill:#225589;fill-rule:nonzero;"/>
           <path d="M863.029,139.595l4.444,-0l-0,25.885l-4.444,0l-0,-25.885Zm-0,-9.786l4.444,-0l-0,4.953l-4.444,0l-0,-4.953Z" style="fill:#225589;fill-rule:nonzero;"/>
           <path d="M887.216,138.72c2.93,0 5.314,0.713 7.151,2.137c1.838,1.425 2.943,3.877 3.315,7.358l-4.249,-0c-0.259,-1.603 -0.85,-2.934 -1.773,-3.995c-0.923,-1.06 -2.404,-1.59 -4.444,-1.59c-2.784,-0 -4.776,1.36 -5.973,4.079c-0.778,1.765 -1.166,3.942 -1.166,6.533c-0,2.606 0.55,4.799 1.651,6.58c1.101,1.781 2.833,2.671 5.197,2.671c1.813,0 3.25,-0.554 4.31,-1.663c1.06,-1.109 1.793,-2.627 2.198,-4.553l4.249,-0c-0.486,3.448 -1.7,5.969 -3.642,7.564c-1.943,1.595 -4.428,2.392 -7.455,2.392c-3.4,-0 -6.111,-1.243 -8.135,-3.728c-2.024,-2.484 -3.035,-5.589 -3.035,-9.312c-0,-4.565 1.109,-8.119 3.326,-10.66c2.218,-2.542 5.043,-3.813 8.475,-3.813Z" style="fill:#225589;fill-rule:nonzero;"/>
           <path d="M915.483,162.663c2.898,0 4.885,-1.096 5.961,-3.29c1.077,-2.194 1.615,-4.634 1.615,-7.321c0,-2.429 -0.388,-4.404 -1.165,-5.925c-1.231,-2.396 -3.351,-3.594 -6.362,-3.594c-2.672,-0 -4.614,1.02 -5.828,3.059c-1.214,2.04 -1.822,4.501 -1.822,7.382c0,2.769 0.608,5.076 1.822,6.921c1.214,1.846 3.14,2.768 5.779,2.768Zm0.17,-23.943c3.351,0 6.184,1.117 8.499,3.351c2.315,2.234 3.472,5.521 3.472,9.859c0,4.193 -1.019,7.657 -3.059,10.393c-2.04,2.736 -5.205,4.104 -9.495,4.104c-3.578,0 -6.419,-1.21 -8.523,-3.63c-2.105,-2.42 -3.157,-5.67 -3.157,-9.75c0,-4.371 1.109,-7.851 3.327,-10.441c2.218,-2.591 5.196,-3.886 8.936,-3.886Z" style="fill:#225589;fill-rule:nonzero;"/>
           <path d="M594.226,206.841c-0,2.785 0.59,5.116 1.772,6.994c1.182,1.878 3.076,2.817 5.682,2.817c2.024,-0 3.687,-0.87 4.991,-2.611c1.303,-1.74 1.954,-4.237 1.954,-7.491c0,-3.286 -0.672,-5.719 -2.015,-7.297c-1.344,-1.578 -3.003,-2.368 -4.978,-2.368c-2.202,0 -3.987,0.842 -5.355,2.526c-1.367,1.684 -2.051,4.16 -2.051,7.43Zm6.58,-13.768c1.991,0 3.659,0.421 5.003,1.263c0.777,0.485 1.659,1.335 2.646,2.549l0,-13.137l4.201,0l0,35.793l-3.934,0l0,-3.618c-1.019,1.603 -2.225,2.76 -3.618,3.473c-1.392,0.712 -2.986,1.068 -4.783,1.068c-2.898,0 -5.407,-1.218 -7.528,-3.654c-2.121,-2.437 -3.181,-5.679 -3.181,-9.726c-0,-3.788 0.967,-7.07 2.902,-9.846c1.934,-2.777 4.698,-4.165 8.292,-4.165Z" style="fill:#225589;fill-rule:nonzero;"/>
           <path d="M632.513,192.952c1.845,-0 3.634,0.433 5.366,1.299c1.732,0.866 3.052,1.987 3.958,3.363c0.874,1.311 1.457,2.841 1.749,4.589c0.259,1.198 0.388,3.109 0.388,5.731l-19.062,0c0.081,2.639 0.704,4.756 1.87,6.35c1.165,1.595 2.971,2.392 5.415,2.392c2.283,0 4.104,-0.753 5.464,-2.258c0.777,-0.874 1.327,-1.886 1.651,-3.036l4.298,0c-0.113,0.955 -0.49,2.02 -1.129,3.194c-0.64,1.173 -1.356,2.132 -2.149,2.877c-1.328,1.295 -2.971,2.169 -4.93,2.623c-1.052,0.259 -2.242,0.388 -3.569,0.388c-3.238,0 -5.982,-1.178 -8.232,-3.533c-2.25,-2.355 -3.375,-5.654 -3.375,-9.895c-0,-4.177 1.133,-7.568 3.399,-10.175c2.267,-2.606 5.229,-3.909 8.888,-3.909Zm6.969,11.51c-0.178,-1.894 -0.591,-3.408 -1.239,-4.541c-1.198,-2.105 -3.197,-3.157 -5.997,-3.157c-2.008,0 -3.691,0.725 -5.051,2.173c-1.36,1.449 -2.081,3.291 -2.161,5.525l14.448,-0Z" style="fill:#225589;fill-rule:nonzero;"/>
           <rect x="652.029" y="183.87" width="4.371" height="35.672" style="fill:#225589;fill-rule:nonzero;"/>
           <path d="M682.951,183.87l26.007,-0l0,4.371l-21.296,-0l0,10.83l19.694,-0l-0,4.128l-19.694,0l0,12.093l21.661,-0l-0,4.249l-26.372,0l0,-35.671Z" style="fill:#225589;fill-rule:nonzero;"/>
           <path d="M720.243,211.382c0.129,1.457 0.494,2.574 1.093,3.351c1.101,1.409 3.011,2.113 5.73,2.113c1.619,0 3.044,-0.352 4.274,-1.056c1.231,-0.705 1.846,-1.793 1.846,-3.266c-0,-1.117 -0.494,-1.967 -1.482,-2.55c-0.631,-0.356 -1.877,-0.769 -3.739,-1.238l-3.473,-0.875c-2.217,-0.55 -3.852,-1.165 -4.905,-1.845c-1.878,-1.182 -2.816,-2.817 -2.816,-4.905c-0,-2.461 0.886,-4.452 2.658,-5.974c1.773,-1.522 4.157,-2.282 7.152,-2.282c3.917,-0 6.742,1.149 8.474,3.448c1.085,1.457 1.611,3.027 1.579,4.711l-4.128,-0c-0.081,-0.988 -0.429,-1.886 -1.044,-2.696c-1.004,-1.149 -2.744,-1.724 -5.221,-1.724c-1.651,0 -2.902,0.316 -3.752,0.947c-0.85,0.631 -1.275,1.465 -1.275,2.501c0,1.133 0.559,2.04 1.676,2.72c0.647,0.405 1.602,0.761 2.865,1.068l2.89,0.705c3.14,0.76 5.245,1.497 6.313,2.209c1.7,1.117 2.55,2.874 2.55,5.27c0,2.315 -0.878,4.314 -2.635,5.998c-1.756,1.683 -4.431,2.525 -8.025,2.525c-3.869,-0 -6.609,-0.878 -8.22,-2.635c-1.611,-1.756 -2.473,-3.929 -2.586,-6.52l4.201,0Z" style="fill:#225589;fill-rule:nonzero;"/>
           <path d="M745.952,186.274l4.419,-0l-0,7.26l4.152,0l0,3.57l-4.152,0l-0,16.974c-0,0.906 0.308,1.513 0.923,1.821c0.34,0.178 0.906,0.267 1.7,0.267c0.21,0 0.437,-0.004 0.679,-0.012c0.243,-0.008 0.527,-0.028 0.85,-0.061l0,3.448c-0.501,0.146 -1.024,0.251 -1.566,0.316c-0.542,0.065 -1.129,0.097 -1.76,0.097c-2.04,0 -3.424,-0.522 -4.153,-1.566c-0.728,-1.044 -1.092,-2.4 -1.092,-4.067l-0,-17.217l-3.522,0l0,-3.57l3.522,0l-0,-7.26Z" style="fill:#225589;fill-rule:nonzero;"/>
           <path d="M772.291,192.952c1.846,-0 3.635,0.433 5.367,1.299c1.732,0.866 3.051,1.987 3.958,3.363c0.874,1.311 1.457,2.841 1.748,4.589c0.259,1.198 0.389,3.109 0.389,5.731l-19.062,0c0.081,2.639 0.704,4.756 1.87,6.35c1.165,1.595 2.97,2.392 5.415,2.392c2.282,0 4.104,-0.753 5.463,-2.258c0.777,-0.874 1.328,-1.886 1.652,-3.036l4.298,0c-0.114,0.955 -0.49,2.02 -1.129,3.194c-0.64,1.173 -1.356,2.132 -2.15,2.877c-1.327,1.295 -2.97,2.169 -4.929,2.623c-1.052,0.259 -2.242,0.388 -3.57,0.388c-3.237,0 -5.981,-1.178 -8.231,-3.533c-2.251,-2.355 -3.376,-5.654 -3.376,-9.895c0,-4.177 1.133,-7.568 3.4,-10.175c2.266,-2.606 5.229,-3.909 8.887,-3.909Zm6.97,11.51c-0.178,-1.894 -0.591,-3.408 -1.239,-4.541c-1.198,-2.105 -3.197,-3.157 -5.998,-3.157c-2.007,0 -3.691,0.725 -5.051,2.173c-1.359,1.449 -2.08,3.291 -2.161,5.525l14.449,-0Z" style="fill:#225589;fill-rule:nonzero;"/>
       <path d="M591.404,61.327l0,-26.6l12.078,0c2.903,0 5.455,0.55 7.656,1.649c2.201,1.1 3.92,2.642 5.156,4.625c1.236,1.984 1.854,4.323 1.854,7.018c-0,2.696 -0.618,5.037 -1.854,7.026c-1.236,1.989 -2.955,3.533 -5.156,4.633c-2.201,1.099 -4.753,1.649 -7.656,1.649l-12.078,-0Zm6.17,-5.043l5.62,0c1.776,0 3.313,-0.336 4.613,-1.009c1.299,-0.672 2.31,-1.628 3.033,-2.869c0.723,-1.24 1.084,-2.702 1.084,-4.387c0,-1.699 -0.361,-3.163 -1.084,-4.39c-0.723,-1.228 -1.734,-2.178 -3.033,-2.851c-1.3,-0.672 -2.837,-1.008 -4.613,-1.008l-5.62,-0l0,16.514Z" style="fill:#225589;fill-rule:nonzero;"/>
       <path d="M624.222,61.327l-0,-20.442l5.648,-0l-0,5.788l-0.78,-1.671c0.603,-1.453 1.574,-2.551 2.914,-3.293c1.34,-0.741 2.977,-1.112 4.913,-1.112l-0,5.467c-0.258,-0.035 -0.491,-0.062 -0.698,-0.079c-0.207,-0.018 -0.417,-0.027 -0.629,-0.027c-1.644,0 -2.961,0.466 -3.953,1.397c-0.991,0.931 -1.487,2.373 -1.487,4.325l-0,9.647l-5.928,0Z" style="fill:#225589;fill-rule:nonzero;"/>
       <path d="M642.477,61.616c-1.036,-0 -1.914,-0.348 -2.632,-1.044c-0.718,-0.695 -1.077,-1.581 -1.077,-2.658c0,-1.103 0.359,-1.99 1.077,-2.663c0.718,-0.673 1.596,-1.009 2.632,-1.009c1.022,-0 1.891,0.336 2.609,1.009c0.718,0.673 1.077,1.56 1.077,2.663c0,1.077 -0.359,1.963 -1.077,2.658c-0.718,0.696 -1.587,1.044 -2.609,1.044Z" style="fill:#225589;fill-rule:nonzero;"/>
       <path d="M656.044,61.327l11.856,-26.6l6.08,0l11.894,26.6l-6.46,0l-9.728,-23.484l2.432,0l-9.766,23.484l-6.308,0Zm5.928,-5.7l1.634,-4.674l13.68,0l1.672,4.674l-16.986,0Zm5.51,-23.066l5.13,-5.472l6.384,0l-6.878,5.472l-4.636,0Z" style="fill:#225589;fill-rule:nonzero;"/>
       <rect x="687.112" y="33.131" width="5.928" height="28.196" style="fill:#225589;fill-rule:nonzero;"/>
       <path d="M703.992,61.327l-8.59,-20.442l6.111,-0l7.148,17.583l-3.047,-0.001l7.429,-17.582l5.678,-0l-8.612,20.442l-6.117,-0Z" style="fill:#225589;fill-rule:nonzero;"/>
       <path d="M731.522,61.327l0,-3.984l-0.356,-0.897l0,-7.129c0,-1.273 -0.386,-2.26 -1.16,-2.96c-0.774,-0.7 -1.964,-1.05 -3.571,-1.05c-1.075,0 -2.14,0.169 -3.194,0.506c-1.055,0.337 -1.954,0.797 -2.7,1.38l-2.116,-4.126c1.124,-0.806 2.47,-1.419 4.037,-1.839c1.568,-0.421 3.162,-0.631 4.783,-0.631c3.129,-0 5.553,0.733 7.271,2.199c1.719,1.466 2.578,3.751 2.578,6.854l0,11.677l-5.572,-0Zm-6.211,0.289c-1.59,-0 -2.955,-0.269 -4.095,-0.806c-1.14,-0.537 -2.013,-1.274 -2.619,-2.211c-0.605,-0.937 -0.908,-1.993 -0.908,-3.169c-0,-1.204 0.296,-2.264 0.888,-3.179c0.592,-0.914 1.534,-1.631 2.826,-2.151c1.291,-0.519 2.975,-0.779 5.052,-0.779l5.41,-0l-0,3.454l-4.753,0c-1.401,0 -2.36,0.226 -2.878,0.678c-0.517,0.452 -0.776,1.03 -0.776,1.735c0,0.741 0.295,1.335 0.884,1.782c0.589,0.446 1.399,0.67 2.429,0.67c0.996,-0 1.89,-0.231 2.682,-0.693c0.792,-0.462 1.363,-1.157 1.713,-2.086l0.896,2.753c-0.421,1.3 -1.202,2.293 -2.342,2.976c-1.141,0.684 -2.61,1.026 -4.409,1.026Z" style="fill:#225589;fill-rule:nonzero;"/>
       <path d="M742.658,61.327l0,-20.442l5.648,-0l0,5.788l-0.779,-1.671c0.602,-1.453 1.573,-2.551 2.913,-3.293c1.34,-0.741 2.978,-1.112 4.913,-1.112l0,5.467c-0.258,-0.035 -0.49,-0.062 -0.698,-0.079c-0.207,-0.018 -0.416,-0.027 -0.629,-0.027c-1.643,0 -2.961,0.466 -3.952,1.397c-0.992,0.931 -1.488,2.373 -1.488,4.325l0,9.647l-5.928,0Z" style="fill:#225589;fill-rule:nonzero;"/>
       <path d="M768.174,61.616c-2.166,-0 -4.091,-0.451 -5.776,-1.353c-1.685,-0.902 -3.012,-2.146 -3.982,-3.732c-0.97,-1.586 -1.455,-3.398 -1.455,-5.437c0,-2.054 0.487,-3.869 1.459,-5.445c0.973,-1.576 2.299,-2.812 3.977,-3.708c1.679,-0.896 3.604,-1.344 5.777,-1.344c2.172,-0 4.105,0.447 5.797,1.342c1.692,0.895 3.017,2.13 3.977,3.704c0.959,1.575 1.439,3.392 1.439,5.452c-0,2.044 -0.479,3.857 -1.436,5.44c-0.958,1.583 -2.285,2.826 -3.983,3.728c-1.698,0.902 -3.629,1.353 -5.794,1.353Zm-0,-4.854c1,-0 1.891,-0.225 2.673,-0.674c0.782,-0.45 1.401,-1.103 1.858,-1.961c0.457,-0.857 0.685,-1.868 0.685,-3.032c0,-1.185 -0.228,-2.197 -0.685,-3.037c-0.457,-0.84 -1.076,-1.485 -1.858,-1.934c-0.782,-0.449 -1.669,-0.674 -2.661,-0.674c-0.993,0 -1.88,0.225 -2.662,0.674c-0.782,0.449 -1.405,1.094 -1.87,1.934c-0.464,0.84 -0.696,1.852 -0.696,3.038c-0,1.163 0.232,2.174 0.696,3.031c0.465,0.858 1.088,1.511 1.868,1.961c0.781,0.449 1.665,0.674 2.652,0.674Z" style="fill:#225589;fill-rule:nonzero;"/>
       <path d="M796.898,61.327l-0,-26.6l12.997,0c3.336,0 5.852,0.633 7.547,1.9c1.694,1.266 2.542,2.943 2.542,5.031c-0,1.388 -0.344,2.593 -1.03,3.614c-0.686,1.021 -1.627,1.812 -2.824,2.374c-1.197,0.562 -2.567,0.844 -4.11,0.844l0.714,-1.571c1.68,0 3.163,0.276 4.449,0.828c1.285,0.553 2.294,1.36 3.026,2.424c0.732,1.064 1.097,2.361 1.097,3.891c0,2.29 -0.899,4.073 -2.697,5.35c-1.798,1.277 -4.449,1.915 -7.954,1.915l-13.757,0Zm6.11,-4.619l7.207,-0c1.585,-0 2.792,-0.266 3.622,-0.796c0.831,-0.53 1.246,-1.359 1.246,-2.487c-0,-1.127 -0.415,-1.96 -1.246,-2.498c-0.83,-0.537 -2.037,-0.806 -3.622,-0.806l-7.654,-0l-0,-4.484l6.576,0c1.503,0 2.649,-0.263 3.438,-0.788c0.79,-0.526 1.185,-1.311 1.185,-2.358c-0,-1.056 -0.395,-1.844 -1.185,-2.364c-0.789,-0.52 -1.935,-0.781 -3.438,-0.781l-6.129,0l0,17.362Z" style="fill:#225589;fill-rule:nonzero;"/>
       <path d="M836.875,61.616c-2.335,-0 -4.377,-0.454 -6.127,-1.361c-1.749,-0.907 -3.105,-2.154 -4.068,-3.742c-0.962,-1.588 -1.443,-3.393 -1.443,-5.415c0,-2.041 0.471,-3.854 1.413,-5.437c0.942,-1.582 2.237,-2.822 3.885,-3.719c1.649,-0.897 3.511,-1.345 5.588,-1.345c2.006,-0 3.812,0.424 5.417,1.273c1.605,0.849 2.876,2.064 3.813,3.645c0.937,1.58 1.405,3.472 1.405,5.675c0,0.228 -0.009,0.487 -0.026,0.778c-0.018,0.291 -0.039,0.558 -0.065,0.801l-16.617,-0l-0,-3.455l13.479,0l-2.29,1.033c0.015,-1.055 -0.196,-1.978 -0.632,-2.77c-0.437,-0.791 -1.034,-1.41 -1.793,-1.857c-0.759,-0.447 -1.646,-0.67 -2.661,-0.67c-1.015,-0 -1.909,0.223 -2.68,0.67c-0.772,0.447 -1.369,1.07 -1.793,1.869c-0.424,0.799 -0.636,1.741 -0.636,2.827l-0,0.925c-0,1.117 0.246,2.094 0.738,2.934c0.492,0.84 1.19,1.486 2.094,1.941c0.903,0.454 1.961,0.681 3.173,0.681c1.085,0 2.037,-0.165 2.857,-0.495c0.819,-0.329 1.578,-0.832 2.278,-1.507l3.154,3.422c-0.953,1.074 -2.135,1.892 -3.548,2.455c-1.414,0.562 -3.052,0.844 -4.915,0.844Z" style="fill:#225589;fill-rule:nonzero;"/>
       <path d="M850.891,61.327l0,-20.442l5.648,-0l-0,5.788l-0.78,-1.671c0.603,-1.453 1.574,-2.551 2.914,-3.293c1.34,-0.741 2.978,-1.112 4.913,-1.112l0,5.467c-0.258,-0.035 -0.491,-0.062 -0.698,-0.079c-0.207,-0.018 -0.417,-0.027 -0.629,-0.027c-1.643,0 -2.961,0.466 -3.952,1.397c-0.992,0.931 -1.488,2.373 -1.488,4.325l0,9.647l-5.928,0Z" style="fill:#225589;fill-rule:nonzero;"/>
       <path d="M866.899,61.327l-0,-20.442l5.647,-0l0,5.788l-0.779,-1.671c0.602,-1.453 1.573,-2.551 2.913,-3.293c1.34,-0.741 2.978,-1.112 4.914,-1.112l-0,5.467c-0.258,-0.035 -0.491,-0.062 -0.698,-0.079c-0.207,-0.018 -0.417,-0.027 -0.629,-0.027c-1.644,0 -2.961,0.466 -3.953,1.397c-0.992,0.931 -1.487,2.373 -1.487,4.325l-0,9.647l-5.928,0Z" style="fill:#225589;fill-rule:nonzero;"/>
       <path d="M891.904,61.616c-1.708,-0 -3.223,-0.325 -4.545,-0.973c-1.322,-0.649 -2.356,-1.654 -3.101,-3.017c-0.744,-1.362 -1.117,-3.094 -1.117,-5.196l0,-11.545l5.928,-0l0,10.659c0,1.714 0.363,2.969 1.089,3.766c0.726,0.796 1.744,1.195 3.054,1.195c0.919,-0 1.735,-0.198 2.446,-0.594c0.71,-0.396 1.27,-1.004 1.679,-1.823c0.408,-0.819 0.612,-1.85 0.612,-3.093l0,-10.11l5.928,-0l0,20.442l-5.647,0l-0,-5.637l1.061,1.657c-0.704,1.407 -1.719,2.47 -3.044,3.19c-1.324,0.719 -2.772,1.079 -4.343,1.079Z" style="fill:#225589;fill-rule:nonzero;"/>
       <path d="M918.71,61.616c-2.419,-0 -4.297,-0.611 -5.633,-1.831c-1.336,-1.22 -2.004,-3.047 -2.004,-5.482l-0,-17.954l5.928,-0l-0,17.855c-0,0.862 0.224,1.532 0.673,2.009c0.449,0.477 1.065,0.716 1.846,0.716c0.949,-0 1.755,-0.252 2.42,-0.754l1.57,4.178c-0.597,0.426 -1.32,0.743 -2.169,0.951c-0.848,0.208 -1.725,0.312 -2.631,0.312Zm-10.809,-15.729l0,-4.55l14.181,0l-0,4.55l-14.181,0Z" style="fill:#225589;fill-rule:nonzero;"/>
       <path d="M934.717,61.616c-2.419,-0 -4.297,-0.611 -5.633,-1.831c-1.336,-1.22 -2.004,-3.047 -2.004,-5.482l0,-17.954l5.928,-0l0,17.855c0,0.862 0.225,1.532 0.674,2.009c0.449,0.477 1.064,0.716 1.846,0.716c0.948,-0 1.755,-0.252 2.419,-0.754l1.571,4.178c-0.598,0.426 -1.321,0.743 -2.169,0.951c-0.848,0.208 -1.726,0.312 -2.632,0.312Zm-10.808,-15.729l-0,-4.55l14.18,0l0,4.55l-14.18,0Z" style="fill:#225589;fill-rule:nonzero;"/>
       <path d="M942.924,61.327l0,-20.444l5.928,0l0,20.444l-5.928,0Zm2.964,-23.294c-1.089,0 -1.976,-0.317 -2.66,-0.95c-0.684,-0.633 -1.026,-1.419 -1.026,-2.356c0,-0.937 0.342,-1.723 1.026,-2.356c0.684,-0.633 1.571,-0.95 2.66,-0.95c1.09,0 1.976,0.298 2.66,0.893c0.684,0.595 1.026,1.362 1.026,2.299c0,0.988 -0.335,1.805 -1.007,2.451c-0.671,0.646 -1.564,0.969 -2.679,0.969Z" style="fill:#225589;fill-rule:nonzero;"/>
       <path d="M188.614,83.921c-0,-0 63.74,145.591 190.231,37.841" style="fill:none;fill-rule:nonzero;stroke:#225589;stroke-width:8.65px;"/>
       <path d="M210.472,119.761c-0,-0 111.023,-107.24 190.33,29.996" style="fill:none;fill-rule:nonzero;stroke:#225589;stroke-width:8.65px;"/>
       <path d="M336.61,120.389c0,-21.48 -17.439,-38.92 -38.92,-38.92c-21.481,0 -38.92,17.44 -38.92,38.92c0,21.481 17.439,38.92 38.92,38.92c21.481,0 38.92,-17.439 38.92,-38.92Z" style="fill:none;stroke:#225589;stroke-width:8.65px;"/>
       <path d="M423.891,120.389l95.859,0" style="fill:none;fill-rule:nonzero;stroke:#225589;stroke-width:8.65px;"/>
</svg>
