<svg version="1.1" xmlns="http://www.w3.org/2000/svg" xmlns:xlink="http://www.w3.org/1999/xlink"
	 viewBox="0 0 24 24" style="enable-background:new 0 0 24 24;" xml:space="preserve">
<style type="text/css">
	.st0{fill:none;stroke:#FFFFFF;stroke-width:0.5;stroke-miterlimit:6.1432;}
</style>
<path d="M12,0C7.8,0,4,3.4,4,7.6c0,6.2,6.4,6.9,8,16.4c1.6-9.5,8-10.2,8-16.4C20,3.4,16.2,0,12,0z"/>
	<path class="st0" d="M16.2,7.7c0-2.1-1.9-3.8-4.2-3.8S7.8,5.6,7.8,7.7c0,2.1,1.9,3.8,4.2,3.8S16.2,9.8,16.2,7.7z"/>
	<path class="st0" d="M8.1,6.1c0,0,2.4,5.5,7.1,1.4"/>
	<path class="st0" d="M8.9,7.5c0,0,4.2-4,7.2,1.1"/>
	<path class="st0" d="M13.7,7.5c0-0.8-0.7-1.5-1.5-1.5s-1.5,0.7-1.5,1.5c0,0.8,0.7,1.5,1.5,1.5S13.7,8.3,13.7,7.5z"/>
</svg>
