<svg version="1.1" xmlns="http://www.w3.org/2000/svg" xmlns:xlink="http://www.w3.org/1999/xlink" x="0px" y="0px"
	 viewBox="0 0 595.3 841.9" style="enable-background:new 0 0 595.3 841.9;" xml:space="preserve">
<style type="text/css">
	.st0{fill:none;stroke:#225589;stroke-width:5.3139;stroke-miterlimit:6.1432;}
</style>
<g>
	<path class="st0" d="M375.1,418.7c0-34.3-30.9-62.1-68.9-62.1s-68.8,27.8-68.8,62.1s30.9,62.1,68.8,62.1S375.1,453,375.1,418.7z"/>
	<path class="st0" d="M462.3,463.1c-12.2,9.9-30.8,17.8-48.4,17.8c-18.2,0-34.7-6.4-47-16.8"/>
	<path class="st0" d="M366.8,373.3c12.3-10.4,28.9-16.8,47-16.8c17.7,0,33.8,6,46,15.9"/>
	<path class="st0" d="M249.3,463.7c-12.4,10.9-28.7,17.1-47.4,17.1c-38,0-68.9-27.8-68.9-62.1s30.8-62.1,68.9-62.1
		c17.7,0,33.9,6,46.1,16"/>
	<path class="st0" d="M242.6,393.9c0,0,39.2,89.4,116.9,23.2"/>
	<path class="st0" d="M256,415.9c0,0,68.2-65.9,116.9,18.4"/>
	<path class="st0" d="M333.5,416.3c0-13.2-10.7-23.9-23.9-23.9c-13.2,0-23.9,10.7-23.9,23.9c0,13.2,10.7,23.9,23.9,23.9
		C322.8,440.2,333.5,429.5,333.5,416.3z"/>
	<path class="st0" d="M387.1,416.3H446"/>
</g>
</svg>
