<svg width="120" height="32" viewBox="0 0 120 32" fill="none" xmlns="http://www.w3.org/2000/svg">
<path d="M17.1767 9.20867C15.2114 7.23948 12.8952 6.25488 10.1579 6.25488C7.49071 6.25488 5.10432 7.23948 3.13906 9.20867C1.1036 11.1075 0.0507812 13.4987 0.0507812 16.1712C0.0507812 19.2656 1.17379 21.7271 3.34962 23.626C5.31488 25.3842 7.49071 26.1578 10.0175 26.1578C12.825 26.1578 15.2114 25.1732 17.1065 23.2743C19.0717 21.3051 20.0544 18.9843 20.0544 16.3118C20.0544 13.4987 19.0717 11.1779 17.1767 9.20867ZM5.10432 11.1075C6.43789 9.7713 8.19259 8.99768 10.1579 8.99768C12.1231 8.99768 13.8076 9.7713 15.2114 11.1075C16.545 12.5141 17.317 14.202 17.317 16.3118C17.317 18.281 16.545 19.9689 15.1412 21.3755C13.8076 22.782 12.0529 23.4853 10.0877 23.4853C8.26278 23.4853 6.64846 22.782 5.2447 21.4458C3.84094 20.1095 3.06887 18.3513 3.06887 16.1712C2.99868 14.202 3.70056 12.5141 5.10432 11.1075Z" fill="black"/>
<path d="M24.5459 6.68262H21.2471V25.8119H24.195V18.0055H25.4584C27.4938 18.0055 29.0379 17.5132 30.161 16.5286C31.3542 15.544 31.9858 14.1374 31.9858 12.3792C31.9858 10.621 31.4945 9.35509 30.3715 8.22984C29.6696 7.59688 29.0379 7.17491 28.1957 6.96393C27.3534 6.82327 26.2304 6.68262 24.5459 6.68262ZM24.195 9.35509H25.1074C27.9149 9.35509 29.2485 10.2694 29.2485 12.3089C29.2485 14.3484 27.9851 15.4033 25.2478 15.4033H24.195V9.35509Z" fill="black"/>
<path d="M39.5662 9.35509H43.988V6.68262H32.2666V9.35509H36.7586V25.8119H39.5662V9.35509Z" fill="black"/>
<path d="M48.1994 6.68262H45.2515V25.8119H48.1994V6.68262Z" fill="black"/>
<path d="M64.4134 7.66436C62.7991 6.75009 61.1146 6.32812 59.4301 6.32812C56.2716 6.32812 53.815 7.52371 51.7796 9.77421C50.2354 11.7434 49.323 13.9236 49.323 16.3147C49.323 19.1279 50.3056 21.4487 52.2709 23.2772C54.2362 25.2464 56.5524 26.1607 59.2897 26.1607C61.1146 26.1607 62.7991 25.8091 64.4836 24.8245V21.308L63.0799 22.363C62.7289 22.574 62.3078 22.7849 61.9568 23.0662C61.1848 23.3476 60.4127 23.4882 59.3599 23.4882C57.3946 23.4882 55.7803 22.7849 54.4467 21.4487C53.043 20.1125 52.4113 18.3543 52.4113 16.3147C52.4113 14.2752 53.043 12.5873 54.4467 11.1104C55.7803 9.77421 57.4648 9.0006 59.3599 9.0006C61.1848 9.0006 62.8693 9.77421 64.5538 11.1104L64.4134 7.66436Z" fill="black"/>
<path d="M74.8711 5.48438L65.3958 25.8092H68.484L70.6599 21.1676H78.7315L80.7669 25.8092H83.9956L74.8711 5.48438ZM77.6085 18.4951H71.7829L74.8009 11.9546L77.6085 18.4951Z" fill="black"/>
<path d="M88.2765 6.68262H85.3286V25.8119H93.8915V22.9988H88.2765V6.68262Z" fill="black"/>
<path d="M110.246 5.48438L100.7 25.8092H103.859L105.964 21.1676H114.106L116.142 25.8092H119.3L110.246 5.48438ZM113.053 18.4951H107.228L110.246 11.9546L113.053 18.4951Z" fill="black"/>
<path d="M99.296 4.2197C99.7873 3.79773 100.138 3.09444 100.138 2.32083C100.138 1.61755 99.8575 1.19558 99.3662 0.703283C98.8749 0.210985 98.2432 0 97.4711 0C96.8394 0 96.2779 0.140657 95.7164 0.632954C95.2251 1.12525 94.9443 1.68788 94.9443 2.46149C94.9443 3.16477 95.1549 3.79773 95.7164 4.29002C96.1375 4.71199 96.7692 5.06363 97.4711 5.06363C98.2432 4.92298 98.8047 4.64166 99.296 4.2197Z" fill="black"/>
<path d="M97.8927 8.65137H97.261L95.0852 28.273C95.0852 29.1872 95.2256 29.8905 95.366 30.5235C95.7169 31.5081 96.489 32.0003 97.4716 32.0003C98.5244 32.0003 99.2965 31.508 99.7176 30.4531C99.9282 29.7498 100.069 29.1169 100.069 28.273C100.069 27.429 99.858 25.4598 99.2965 22.4357L97.8927 8.65137Z" fill="black"/>
</svg>
