<?xml version="1.0" encoding="utf-8"?>
<!-- Generator: Adobe Illustrator 27.6.1, SVG Export Plug-In . SVG Version: 6.00 Build 0)  -->
<svg version="1.1" id="Capa_1" xmlns="http://www.w3.org/2000/svg" xmlns:xlink="http://www.w3.org/1999/xlink" x="0px" y="0px"
	 viewBox="0 0 800.83 169.69" style="enable-background:new 0 0 800.83 169.69;" xml:space="preserve">
<style type="text/css">
	.st0{fill:#215488;}
</style>
<g>
	<path class="st0" d="M226.19,2.94c-0.09,0-0.19,0.01-0.28,0.01c-0.1,0-0.19-0.01-0.29-0.01c-50.55,0-91.68,37.4-91.68,83.38
		s41.13,83.38,91.68,83.38c0.1,0,0.19-0.01,0.29-0.01c0.09,0,0.19,0.01,0.28,0.01c50.56,0,91.68-37.4,91.68-83.38
		S276.74,2.94,226.19,2.94z M171,28.55l-0.03,0.03c15.2-11.82,34.84-18.13,54.93-18.2c20.09,0.06,39.73,6.37,54.93,18.19l-0.03-0.03
		c18.12,13.94,29.63,34.67,29.63,57.77c0,4.7-0.48,9.3-1.39,13.76c-8.69-14.85-29.19-43.3-61.82-50.31
		c-26.64-5.72-55.24,4.26-85.07,29.64c-8.1-10.21-12.91-19.51-14.29-22.34C153.02,45.99,161,36.24,171,28.55z M229.11,110.94
		c-14.75,0-26.75-12-26.75-26.75s12-26.75,26.75-26.75s26.75,12,26.75,26.75S243.86,110.94,229.11,110.94z M195.39,84.19
		c0,11.18,5.47,21.09,13.86,27.23c-0.13-0.03-0.26-0.05-0.38-0.07c-17.74-3.8-31.77-14.96-41.91-26.26
		c12.74-10.84,25.16-18.7,37.2-23.56C198.71,67.52,195.39,75.48,195.39,84.19z M250.76,58.36c15.33,4.67,27.64,14.74,36.78,24.92
		c-10.69,9.1-21.16,16.11-31.37,21c4.18-5.62,6.66-12.57,6.66-20.1C262.83,73.83,258.13,64.55,250.76,58.36z M285.56,140.15
		L285.56,140.15c-15.86,14.37-37.19,22.04-59.65,22.11c-22.47-0.07-43.8-7.75-59.67-22.12l0.01,0.01
		c-15.36-13.76-24.88-32.81-24.88-53.83c0-6.91,1.03-13.61,2.96-19.97c7.96,14.15,28.81,44.94,62.94,52.26
		c4.86,1.05,9.79,1.57,14.78,1.57c22.34,0,45.91-10.46,70.29-31.21c7.31,9.22,11.94,17.7,13.79,21.34
		C301.92,121.68,294.8,131.87,285.56,140.15z"/>
	<path class="st0" d="M422.03,139.9c-15.93,14.43-37.14,22.37-59.71,22.37c-21.12,0-41.32-7.08-56.88-19.93l-4.73,5.73
		c16.89,13.95,38.78,21.63,61.62,21.63c24.42,0,47.4-8.63,64.7-24.29L422.03,139.9z"/>
	<path class="st0" d="M362.32,10.37c20.19,0,39.73,6.54,55,18.42l4.56-5.87c-16.57-12.89-37.72-19.99-59.56-19.99
		c-22.26,0-43.73,7.34-60.44,20.68l4.64,5.81C321.91,17.14,341.73,10.37,362.32,10.37z"/>
	<rect x="328.67" y="79.7" class="st0" width="74.9" height="7.43"/>
	<g>
		<path class="st0" d="M472.78,8.21c6.7,0,11.6,3.41,13.94,8.25l-2.98,1.81c-2.39-5-7.08-6.71-11.17-6.71
			c-9.05,0-13.99,8.09-13.99,15.7c0,8.35,6.12,15.91,14.15,15.91c4.26,0,9.26-2.13,11.65-7.02l3.09,1.6
			c-2.45,5.64-9.15,8.78-14.95,8.78c-10.38,0-17.66-9.9-17.66-19.48C454.85,17.95,461.39,8.21,472.78,8.21z"/>
		<path class="st0" d="M491.25,32.26c0-7.77,5.85-14.26,13.89-14.26c8.09,0,13.67,6.6,13.73,14.21c0,0.53-0.05,1.22-0.11,1.44
			h-23.68c0.43,5.96,4.9,10.32,10.22,10.32c3.67,0,7.24-2.02,8.51-5l3.14,0.85c-1.7,4.05-6.44,6.92-11.76,6.92
			C497.1,46.74,491.25,40.14,491.25,32.26z M515.4,30.88c-0.48-5.91-4.84-10.06-10.27-10.06s-9.79,4.2-10.16,10.06H515.4z"/>
		<path class="st0" d="M547.6,46.21h-3.62V30.73c0-6.55-1.86-9.42-5.91-9.42c-4.31,0-8.78,3.35-10.16,7.93v16.97h-3.62V18.49h3.3
			v6.28c2.24-4.04,6.86-6.76,11.76-6.76c6.22,0,8.25,4.68,8.25,11.97L547.6,46.21L547.6,46.21z"/>
		<path class="st0" d="M568.3,44.87c-0.85,0.37-3.3,1.65-6.28,1.65c-3.14,0-5.85-1.76-5.85-5.32V21.35h-3.83v-2.87h3.83V9.12h3.62
			v9.36h6.39v2.87h-6.39v18.84c0.16,2.02,1.6,2.98,3.35,2.98c2.02,0,3.78-0.96,4.2-1.22L568.3,44.87z"/>
		<path class="st0" d="M586.39,21.68c-4.84,0.16-8.73,2.82-10.22,7.29v17.24h-3.62V18.49h3.41v6.65c1.92-3.88,5.27-6.81,8.83-6.81
			c0.64,0,1.22,0,1.6,0.05V21.68z"/>
		<path class="st0" d="M588.15,32.42c0-7.77,5.85-14.42,13.78-14.42c7.93,0,13.78,6.65,13.78,14.42c0,7.72-5.8,14.31-13.78,14.31
			C593.84,46.74,588.15,40.14,588.15,32.42z M601.87,43.54c5.54,0,10.11-5,10.11-11.17S607.4,21.2,601.92,21.2
			c-5.54,0-10.06,5.05-10.06,11.28C591.87,38.65,596.34,43.54,601.87,43.54z"/>
		<path class="st0" d="M454.9,84.03c0-10.06,7.66-19.16,17.77-19.16c10.54,0,17.66,9.74,17.66,19.21c0,10.06-7.61,19.1-17.72,19.1
			C462.09,103.18,454.9,93.71,454.9,84.03z M472.62,99.83c8.57,0,13.99-8.03,13.99-15.8c0-8.2-5.8-15.75-13.99-15.75
			c-8.57,0-13.99,7.93-13.99,15.75C458.63,92.22,464.32,99.83,472.62,99.83z"/>
		<path class="st0" d="M498.11,102.92v-21.6h-3.83v-2.87h3.83v-3.99c0-6.76,3.14-10.91,8.19-10.91c2.13,0,4.31,0.69,5.8,1.76
			l-1.12,2.61c-0.96-0.74-2.55-1.22-3.99-1.22c-3.41,0-5.27,2.71-5.27,7.66v4.1h7.66v2.87h-7.66v21.6L498.11,102.92L498.11,102.92z"
			/>
		<path class="st0" d="M528.39,101.59c-0.85,0.37-3.3,1.65-6.28,1.65c-3.14,0-5.85-1.76-5.85-5.32V78.07h-3.83V75.2h3.83v-9.36h3.62
			v9.36h6.39v2.87h-6.39v18.84c0.16,2.02,1.6,2.98,3.35,2.98c2.02,0,3.78-0.96,4.2-1.22L528.39,101.59z"/>
		<path class="st0" d="M530.46,94.99c0-5.16,4.79-8.51,11.7-8.51c2.77,0,5.85,0.53,8.14,1.44v-2.5c0-4.9-3.03-7.98-7.77-7.98
			c-2.93,0-5.91,1.17-8.94,3.3l-1.28-2.39c3.57-2.39,6.92-3.62,10.59-3.62c6.7,0,11.01,4.15,11.01,11.01v12.5
			c0,1.01,0.37,1.49,1.28,1.49v3.19c-0.59,0.05-1.06,0.11-1.44,0.11c-1.44,0-2.82-0.85-2.93-2.55l-0.11-2.18
			c-2.39,3.25-6.76,5.16-10.75,5.16C534.3,103.45,530.46,99.57,530.46,94.99z M549.41,96.8c0.48-0.64,0.9-1.44,0.9-2.08V90.2
			c-2.39-0.91-5.11-1.44-7.61-1.44c-5.16,0-8.73,2.24-8.73,5.91c0,2.93,2.29,6.01,6.92,6.01C544.09,100.68,547.6,99.19,549.41,96.8z
			"/>
		<path class="st0" d="M561.97,64.08h3.62v32.56c0,2.07,1.22,3.3,3.25,3.3c0.8,0,1.97-0.21,2.87-0.59l0.64,2.93
			c-1.33,0.53-3.56,0.96-5,0.96c-3.3,0-5.37-2.02-5.37-5.37V64.08H561.97z"/>
		<path class="st0" d="M617.09,102.92h-3.62V87.44c0-6.44-2.02-9.42-6.12-9.42c-4.2,0-7.77,3.3-9.1,7.98v16.92h-3.62V87.44
			c0-6.54-1.97-9.42-6.07-9.42c-4.15,0-7.71,3.19-9.1,7.93v16.97h-3.61V75.2h3.3v6.28c2.29-4.26,6.12-6.76,10.59-6.76
			c4.63,0,7.61,2.93,8.19,7.13c2.55-4.68,6.17-7.13,10.75-7.13c6.17,0,8.41,4.73,8.41,11.97V102.92z"/>
		<path class="st0" d="M622.79,89.14c0-7.77,5.85-14.42,13.78-14.42c7.93,0,13.78,6.65,13.78,14.42c0,7.72-5.8,14.31-13.78,14.31
			C628.48,103.45,622.79,96.85,622.79,89.14z M636.51,100.26c5.53,0,10.11-5,10.11-11.17s-4.57-11.17-10.05-11.17
			c-5.54,0-10.06,5.05-10.06,11.28C626.51,95.36,630.98,100.26,636.51,100.26z"/>
		<path class="st0" d="M656.41,64.08h3.62v32.56c0,2.07,1.22,3.3,3.25,3.3c0.8,0,1.97-0.21,2.87-0.59l0.64,2.93
			c-1.33,0.53-3.56,0.96-5,0.96c-3.3,0-5.37-2.02-5.37-5.37V64.08H656.41z"/>
		<path class="st0" d="M668.49,89.14c0-7.77,5.85-14.42,13.78-14.42c7.93,0,13.78,6.65,13.78,14.42c0,7.72-5.8,14.31-13.78,14.31
			C674.19,103.45,668.49,96.85,668.49,89.14z M682.22,100.26c5.53,0,10.11-5,10.11-11.17s-4.58-11.17-10.06-11.17
			c-5.53,0-10.06,5.05-10.06,11.28C672.22,95.36,676.69,100.26,682.22,100.26z M682.6,69.93l-2.4-0.9l3.14-4.95h3.83L682.6,69.93z"
			/>
		<path class="st0" d="M700.21,89.14c0-7.72,5.27-14.42,12.88-14.42c4.74,0,8.19,2.71,10.64,6.28v-5.8h3.24v27.83
			c0,7.72-6.17,11.76-13.62,11.76c-6.33,0-9.95-2.45-12.4-6.28l2.24-1.76c2.18,3.51,6.07,5.16,10.16,5.16c5.43,0,10-2.93,10-8.89
			v-5.48c-2.18,3.51-6.17,5.75-10.16,5.75C705.58,103.29,700.21,96.43,700.21,89.14z M723.35,93.39v-8.57
			c-1.6-3.99-5.64-6.92-9.63-6.92c-6.17,0-9.84,5.8-9.84,11.28c0,5.96,4.52,11.07,10.32,11.07
			C718.51,100.26,722.71,96.8,723.35,93.39z"/>
		<path class="st0" d="M734.74,69.4v-5.32h3.62v5.32H734.74z M734.74,102.92V75.2h3.62v27.72H734.74z"/>
		<path class="st0" d="M758.21,74.72c5.21,0,9.31,2.55,11.28,6.6l-3.51,1.12c-1.54-2.82-4.52-4.52-7.87-4.52
			c-5.64,0-10.06,4.73-10.06,11.07c0,6.28,4.58,11.28,10.11,11.28c3.51,0,7.24-2.18,8.09-4.73l3.51,1.06
			c-1.49,3.99-6.17,6.86-11.49,6.86c-8.03,0-13.94-6.6-13.94-14.47C744.32,81.1,750.01,74.72,758.21,74.72z"/>
		<path class="st0" d="M773.27,89.14c0-7.77,5.85-14.42,13.78-14.42c7.93,0,13.78,6.65,13.78,14.42c0,7.72-5.8,14.31-13.78,14.31
			C778.96,103.45,773.27,96.85,773.27,89.14z M787,100.26c5.53,0,10.11-5,10.11-11.17s-4.58-11.17-10.06-11.17
			c-5.53,0-10.06,5.05-10.06,11.28C776.99,95.36,781.46,100.26,787,100.26z"/>
		<path class="st0" d="M454.58,145.85c0-7.82,5.32-14.42,12.66-14.42c4.68,0,8.41,2.82,10.53,6.28v-16.92h3.62v34.16
			c0,1.01,0.37,1.49,1.28,1.49v3.19c-0.58,0.11-1.06,0.16-1.44,0.16c-1.76,0-3.03-1.17-3.03-2.61v-2.93
			c-2.23,3.62-6.28,5.91-10.32,5.91C460.17,160.16,454.58,153.3,454.58,145.85z M477.78,150.11v-8.57c-1.44-3.83-5.8-6.92-9.58-6.92
			c-5.96,0-9.9,5.53-9.9,11.23c0,6.01,4.52,11.12,10.32,11.12C472.3,156.97,477.2,153.89,477.78,150.11z"/>
		<path class="st0" d="M487.74,145.69c0-7.77,5.85-14.26,13.89-14.26c8.09,0,13.67,6.6,13.73,14.21c0,0.53-0.05,1.22-0.11,1.44
			h-23.68c0.43,5.96,4.9,10.32,10.22,10.32c3.67,0,7.24-2.02,8.51-5l3.14,0.85c-1.7,4.04-6.44,6.92-11.76,6.92
			C493.59,160.16,487.74,153.57,487.74,145.69z M511.89,144.31c-0.48-5.91-4.84-10.06-10.27-10.06s-9.79,4.2-10.16,10.06H511.89z"/>
		<path class="st0" d="M520.94,120.79h3.62v32.56c0,2.08,1.22,3.3,3.25,3.3c0.8,0,1.97-0.21,2.87-0.59l0.64,2.93
			c-1.33,0.53-3.56,0.96-5,0.96c-3.3,0-5.37-2.02-5.37-5.37v-33.79H520.94z"/>
		<path class="st0" d="M573.24,156.33v3.3h-25.38v-37.78h24.9v3.3h-21.23v13.62h18.52v3.14h-18.52v14.42H573.24z"/>
		<path class="st0" d="M576.97,156.01l1.65-2.45c3.09,2.55,6.28,3.83,9.95,3.83c4.42,0,7.34-1.91,7.34-5.21
			c0-3.09-2.77-3.94-8.35-5.27c-6.44-1.6-9.31-2.71-9.31-7.08c0-5.59,4.68-8.41,10.38-8.41c4.26,0,7.87,1.54,10,3.78l-1.76,2.13
			c-2.07-2.13-5.21-3.19-8.35-3.19c-3.78,0-6.81,1.54-6.81,5.16c0,2.93,1.97,3.57,6.92,4.74c7.13,1.7,10.8,3.08,10.8,7.82
			c0,5.05-4.26,8.3-10.8,8.3C584.31,160.16,579.95,158.73,576.97,156.01z"/>
		<path class="st0" d="M618.58,158.3c-0.85,0.37-3.3,1.65-6.28,1.65c-3.14,0-5.85-1.76-5.85-5.32v-19.85h-3.83v-2.87h3.83v-9.37
			h3.62v9.37h6.39v2.87h-6.39v18.84c0.16,2.02,1.6,2.98,3.35,2.98c2.02,0,3.78-0.96,4.2-1.22L618.58,158.3z"/>
		<path class="st0" d="M621.03,145.69c0-7.77,5.85-14.26,13.89-14.26c8.09,0,13.67,6.6,13.73,14.21c0,0.53-0.05,1.22-0.11,1.44
			h-23.68c0.43,5.96,4.9,10.32,10.22,10.32c3.67,0,7.24-2.02,8.51-5l3.14,0.85c-1.7,4.04-6.44,6.92-11.76,6.92
			C626.88,160.16,621.03,153.57,621.03,145.69z M645.19,144.31c-0.48-5.91-4.84-10.06-10.27-10.06s-9.79,4.2-10.16,10.06H645.19z"/>
	</g>
	<g>
		<path class="st0" d="M91.68,162.27c-46.46,0-84.25-34.07-84.25-75.95s37.79-75.95,84.25-75.95c20.19,0,39.73,6.54,55,18.42
			l4.56-5.87C134.67,10.03,113.52,2.93,91.68,2.93C41.13,2.93,0,40.33,0,86.31s41.13,83.38,91.68,83.38
			c22.19,0,43.2-7.13,59.83-20.19l-4.91-5.59C131.32,155.79,112.06,162.27,91.68,162.27z"/>
	</g>
</g>
</svg>
