<svg width="32" height="32" viewBox="0 0 32 32" fill="none" xmlns="http://www.w3.org/2000/svg">
<path fill-rule="evenodd" clip-rule="evenodd" d="M16.101 27.1973C23.2342 27.1426 29 21.2992 29 14.0988C29 6.86454 23.1797 1 16 1C8.8203 1 3 6.86454 3 14.0988C3 21.2992 8.76578 27.1426 15.899 27.1973H13.5002L15.1044 30.4301C15.472 31.1708 16.5285 31.1708 16.896 30.4301L18.5002 27.1973H16.101Z" fill="black"/>
<path d="M16.101 27.1973L16.0972 26.6973L16.101 27.6973V27.1973ZM15.899 27.1973V27.6973L15.9028 26.6973L15.899 27.1973ZM13.5002 27.1973V26.6973H12.6939L13.0523 27.4195L13.5002 27.1973ZM15.1044 30.4301L15.5523 30.2079L15.1044 30.4301ZM16.896 30.4301L17.3439 30.6524L16.896 30.4301ZM18.5002 27.1973L18.9481 27.4195L19.3065 26.6973H18.5002V27.1973ZM28.5 14.0988C28.5 21.0278 22.9524 26.6447 16.0972 26.6973L16.1048 27.6973C23.516 27.6404 29.5 21.5705 29.5 14.0988H28.5ZM16 1.5C22.9 1.5 28.5 7.13711 28.5 14.0988H29.5C29.5 6.59198 23.4594 0.5 16 0.5V1.5ZM3.5 14.0988C3.5 7.13711 9.1 1.5 16 1.5V0.5C8.54059 0.5 2.5 6.59198 2.5 14.0988H3.5ZM15.9028 26.6973C9.04757 26.6447 3.5 21.0278 3.5 14.0988H2.5C2.5 21.5705 8.484 27.6404 15.8952 27.6973L15.9028 26.6973ZM13.5002 27.6973H15.899V26.6973H13.5002V27.6973ZM15.5523 30.2079L13.9481 26.975L13.0523 27.4195L14.6566 30.6524L15.5523 30.2079ZM16.4481 30.2079C16.2643 30.5782 15.7361 30.5782 15.5523 30.2079L14.6566 30.6524C15.2079 31.7633 16.7926 31.7633 17.3439 30.6524L16.4481 30.2079ZM18.0523 26.975L16.4481 30.2079L17.3439 30.6524L18.9481 27.4195L18.0523 26.975ZM16.101 27.6973H18.5002V26.6973H16.101V27.6973Z" fill="black"/>
<path d="M17.6986 20.0231L16.3452 11.1457C16.3192 10.9751 16.1725 10.8491 16 10.8491C15.8275 10.8491 15.6808 10.9751 15.6548 11.1457L14.3014 20.0231C14.1429 21.0632 14.9479 22.0003 16 22.0003C17.0521 22.0003 17.8571 21.0632 17.6986 20.0231Z" fill="#FFFDFB"/>
<ellipse cx="16" cy="7.4545" rx="1.5" ry="1.4545" fill="#FFFDFB"/>
</svg>
