<svg width="32" height="32" viewBox="0 0 32 32" fill="none" xmlns="http://www.w3.org/2000/svg">
<path fill-rule="evenodd" clip-rule="evenodd" d="M5.49976 8C5.49976 7.72386 5.72361 7.5 5.99976 7.5H25.9998C26.2759 7.5 26.4998 7.72386 26.4998 8C26.4998 8.27614 26.2759 8.5 25.9998 8.5H5.99976C5.72361 8.5 5.49976 8.27614 5.49976 8ZM5.49976 16C5.49976 15.7239 5.72361 15.5 5.99976 15.5H25.9998C26.2759 15.5 26.4998 15.7239 26.4998 16C26.4998 16.2761 26.2759 16.5 25.9998 16.5H5.99976C5.72361 16.5 5.49976 16.2761 5.49976 16ZM5.99976 23.5C5.72361 23.5 5.49976 23.7239 5.49976 24C5.49976 24.2761 5.72361 24.5 5.99976 24.5H25.9998C26.2759 24.5 26.4998 24.2761 26.4998 24C26.4998 23.7239 26.2759 23.5 25.9998 23.5H5.99976Z" fill="black"/>
</svg>
