<svg width="212" height="56" viewBox="0 0 212 56" fill="none" xmlns="http://www.w3.org/2000/svg">
<path d="M30.3569 16.1143C26.8733 12.6683 22.7677 10.9453 17.9156 10.9453C13.1878 10.9453 8.95778 12.6683 5.4742 16.1143C1.8662 19.4372 0 23.6217 0 28.2984C0 33.7135 1.99062 38.021 5.84744 41.344C9.33102 44.4208 13.1878 45.7745 17.6667 45.7745C22.6433 45.7745 26.8733 44.0515 30.2325 40.7286C33.7161 37.2826 35.4579 33.2213 35.4579 28.5445C35.4579 23.6217 33.7161 19.5603 30.3569 16.1143ZM8.95778 19.4372C11.3216 17.0989 14.432 15.7451 17.9156 15.7451C21.3991 15.7451 24.3851 17.0989 26.8733 19.4372C29.2372 21.8987 30.6057 24.8524 30.6057 28.5445C30.6057 31.9905 29.2372 34.9443 26.7489 37.4057C24.3851 39.8671 21.2747 41.0978 17.7911 41.0978C14.5564 41.0978 11.6949 39.8671 9.20661 37.5288C6.71834 35.1904 5.34979 32.1136 5.34979 28.2984C5.22537 24.8524 6.46951 21.8987 8.95778 19.4372Z" fill="#0085FF"/>
<path d="M43.4197 11.6934H37.5723V45.1688H42.7976V31.5079H45.0371C48.6451 31.5079 51.3822 30.6464 53.3728 28.9234C55.4878 27.2004 56.6075 24.7389 56.6075 21.6622C56.6075 18.5854 55.7367 16.3701 53.746 14.4009C52.5019 13.2933 51.3822 12.5549 49.8892 12.1856C48.3962 11.9395 46.4056 11.6934 43.4197 11.6934ZM42.7976 16.3701H44.415C49.3916 16.3701 51.7554 17.97 51.7554 21.5391C51.7554 25.1082 49.516 26.9542 44.6638 26.9542H42.7976V16.3701Z" fill="#0085FF"/>
<path d="M70.0445 16.3701H77.8825V11.6934H57.1055V16.3701H65.0679V45.1688H70.0445V16.3701Z" fill="#0085FF"/>
<path d="M85.3484 11.6934H80.123V45.1688H85.3484V11.6934Z" fill="#0085FF"/>
<path d="M114.089 13.4145C111.227 11.8146 108.241 11.0762 105.255 11.0762C99.6568 11.0762 95.3023 13.1684 91.6943 17.1067C88.9572 20.5527 87.3398 24.3679 87.3398 28.5523C87.3398 33.4752 89.0816 37.5365 92.5652 40.7364C96.0488 44.1824 100.154 45.7823 105.007 45.7823C108.241 45.7823 111.227 45.167 114.213 43.444V37.2904L111.725 39.1365C111.103 39.5057 110.356 39.8749 109.734 40.3672C108.366 40.8595 106.997 41.1056 105.131 41.1056C101.647 41.1056 98.7859 39.8749 96.422 37.5365C93.9338 35.1982 92.814 32.1214 92.814 28.5523C92.814 24.9833 93.9338 22.0295 96.422 19.445C98.7859 17.1067 101.772 15.7529 105.131 15.7529C108.366 15.7529 111.352 17.1067 114.338 19.445L114.089 13.4145Z" fill="#0085FF"/>
<path d="M132.626 9.59766L115.83 45.1653H121.304L125.161 37.0426H139.469L143.077 45.1653H148.8L132.626 9.59766ZM137.478 32.3659H127.152L132.502 20.9202L137.478 32.3659Z" fill="#0085FF"/>
<path d="M156.387 11.6934H151.162V45.1688H166.341V40.246H156.387V11.6934Z" fill="#0085FF"/>
<path d="M195.328 9.59766L178.408 45.1653H184.007L187.739 37.0426H202.171L205.779 45.1653H211.378L195.328 9.59766ZM200.305 32.3659H189.979L195.328 20.9202L200.305 32.3659Z" fill="#0085FF"/>
<path d="M175.92 7.38429C176.791 6.64586 177.413 5.41515 177.413 4.06136C177.413 2.83064 176.915 2.09222 176.044 1.23072C175.173 0.369215 174.053 0 172.685 0C171.565 0 170.57 0.246143 169.575 1.10764C168.704 1.96914 168.206 2.95372 168.206 4.3075C168.206 5.53822 168.579 6.64586 169.575 7.50736C170.321 8.24579 171.441 8.86115 172.685 8.86115C174.053 8.61501 175.049 8.12272 175.92 7.38429Z" fill="#0085FF"/>
<path d="M173.433 15.1406H172.313L168.456 49.4776C168.456 51.0775 168.705 52.3082 168.954 53.4159C169.576 55.1389 170.944 56.0004 172.686 56.0004C174.552 56.0004 175.921 55.1389 176.667 53.2928C177.041 52.0621 177.289 50.9544 177.289 49.4776C177.289 48.0007 176.916 44.5547 175.921 39.2626L173.433 15.1406Z" fill="#0085FF"/>
<path d="M210.259 10.217L210.01 9.60166C210.01 9.35552 209.761 9.35552 209.637 9.23245C209.388 9.23245 209.015 9.10938 208.766 9.10938H206.775V13.5399H207.273V11.5708H208.393C208.393 11.5708 208.517 11.5708 208.642 11.6939L208.89 11.94L210.01 13.5399H210.757L209.388 11.8169L209.015 11.4477C209.388 11.4477 209.761 11.3247 210.135 11.2016L210.259 10.217ZM209.264 9.8478L209.512 10.217L209.388 10.5862L209.139 10.8324L208.517 11.0785H207.149V9.47859H208.642C208.89 9.47859 209.139 9.60166 209.264 9.8478Z" fill="#0085FF"/>
<path d="M208.268 7.62891C207.397 7.62891 206.277 7.99812 205.655 8.73655C205.033 9.35191 204.535 10.3365 204.535 11.3211C204.535 12.1826 204.908 13.2902 205.655 13.9056C206.277 14.644 207.397 15.0132 208.268 15.0132C209.387 15.0132 210.134 14.7671 210.88 13.9056C211.502 13.2902 212 12.1826 212 11.3211C212 10.2134 211.627 9.35191 210.88 8.73655C210.134 7.99812 209.263 7.62891 208.268 7.62891ZM205.779 8.85962C206.401 8.24426 207.272 7.99812 208.143 7.99812C209.014 7.99812 209.885 8.24426 210.507 8.85962C211.129 9.59805 211.627 10.4596 211.627 11.3211C211.627 12.1826 211.253 13.1671 210.507 13.7825C209.885 14.3978 209.014 14.644 208.143 14.644C207.272 14.644 206.401 14.3978 205.779 13.7825C205.157 13.1671 204.66 12.1826 204.66 11.3211C204.784 10.3365 205.157 9.59805 205.779 8.85962Z" fill="#0085FF"/>
</svg>
